<svg version="1.1" xmlns="http://www.w3.org/2000/svg" viewBox="0 0 49.69959939223327 49.74774735839571" width="99.39919878446653" height="99.49549471679143"><!-- svg-source:excalidraw --><metadata></metadata><defs><style class="style-fonts">
</style></defs><g stroke-linecap="round" transform="translate(10 10.064034317254027) rotate(0 7.4228812622193345 7.422881262219391)"><path d="M3.71 0 C5.48 0, 7.25 0, 11.13 0 C13.61 0, 14.85 1.24, 14.85 3.71 C14.85 5.99, 14.85 8.26, 14.85 11.13 C14.85 13.61, 13.61 14.85, 11.13 14.85 C8.63 14.85, 6.13 14.85, 3.71 14.85 C1.24 14.85, 0 13.61, 0 11.13 C0 9.31, 0 7.49, 0 3.71 C0 1.24, 1.24 0, 3.71 0" stroke="none" stroke-width="0" fill="#ffd43b"></path><path d="M3.71 0 C6.55 0, 9.38 0, 11.13 0 M3.71 0 C5.38 0, 7.05 0, 11.13 0 M11.13 0 C13.61 0, 14.85 1.24, 14.85 3.71 M11.13 0 C13.61 0, 14.85 1.24, 14.85 3.71 M14.85 3.71 C14.85 5.52, 14.85 7.34, 14.85 11.13 M14.85 3.71 C14.85 5.23, 14.85 6.75, 14.85 11.13 M14.85 11.13 C14.85 13.61, 13.61 14.85, 11.13 14.85 M14.85 11.13 C14.85 13.61, 13.61 14.85, 11.13 14.85 M11.13 14.85 C8.26 14.85, 5.39 14.85, 3.71 14.85 M11.13 14.85 C8.53 14.85, 5.93 14.85, 3.71 14.85 M3.71 14.85 C1.24 14.85, 0 13.61, 0 11.13 M3.71 14.85 C1.24 14.85, 0 13.61, 0 11.13 M0 11.13 C0 8.67, 0 6.2, 0 3.71 M0 11.13 C0 8.22, 0 5.31, 0 3.71 M0 3.71 C0 1.24, 1.24 0, 3.71 0 M0 3.71 C0 1.24, 1.24 0, 3.71 0" stroke="#f8f9fa" stroke-width="1" fill="none"></path></g><g stroke-linecap="round" transform="translate(24.789802132509067 10) rotate(0 7.4228812622193345 7.422881262219391)"><path d="M3.71 0 C5.87 0, 8.02 0, 11.13 0 C13.61 0, 14.85 1.24, 14.85 3.71 C14.85 5.77, 14.85 7.83, 14.85 11.13 C14.85 13.61, 13.61 14.85, 11.13 14.85 C8.9 14.85, 6.67 14.85, 3.71 14.85 C1.24 14.85, 0 13.61, 0 11.13 C0 8.56, 0 6, 0 3.71 C0 1.24, 1.24 0, 3.71 0" stroke="none" stroke-width="0" fill="#69db7c"></path><path d="M3.71 0 C6.16 0, 8.61 0, 11.13 0 M3.71 0 C6.66 0, 9.62 0, 11.13 0 M11.13 0 C13.61 0, 14.85 1.24, 14.85 3.71 M11.13 0 C13.61 0, 14.85 1.24, 14.85 3.71 M14.85 3.71 C14.85 6.38, 14.85 9.06, 14.85 11.13 M14.85 3.71 C14.85 6.61, 14.85 9.51, 14.85 11.13 M14.85 11.13 C14.85 13.61, 13.61 14.85, 11.13 14.85 M14.85 11.13 C14.85 13.61, 13.61 14.85, 11.13 14.85 M11.13 14.85 C9.37 14.85, 7.61 14.85, 3.71 14.85 M11.13 14.85 C8.35 14.85, 5.56 14.85, 3.71 14.85 M3.71 14.85 C1.24 14.85, 0 13.61, 0 11.13 M3.71 14.85 C1.24 14.85, 0 13.61, 0 11.13 M0 11.13 C0 9.58, 0 8.02, 0 3.71 M0 11.13 C0 8.89, 0 6.64, 0 3.71 M0 3.71 C0 1.24, 1.24 0, 3.71 0 M0 3.71 C0 1.24, 1.24 0, 3.71 0" stroke="#f8f9fa" stroke-width="1" fill="none"></path></g><g stroke-linecap="round" transform="translate(10.036460163161792 24.901854217551318) rotate(0 7.4228812622193345 7.422881262219391)"><path d="M3.71 0 C6.4 0, 9.09 0, 11.13 0 C13.61 0, 14.85 1.24, 14.85 3.71 C14.85 5.3, 14.85 6.88, 14.85 11.13 C14.85 13.61, 13.61 14.85, 11.13 14.85 C9.34 14.85, 7.54 14.85, 3.71 14.85 C1.24 14.85, 0 13.61, 0 11.13 C0 8.89, 0 6.64, 0 3.71 C0 1.24, 1.24 0, 3.71 0" stroke="none" stroke-width="0" fill="#4dabf7"></path><path d="M3.71 0 C5.54 0, 7.37 0, 11.13 0 M3.71 0 C6.05 0, 8.4 0, 11.13 0 M11.13 0 C13.61 0, 14.85 1.24, 14.85 3.71 M11.13 0 C13.61 0, 14.85 1.24, 14.85 3.71 M14.85 3.71 C14.85 5.47, 14.85 7.24, 14.85 11.13 M14.85 3.71 C14.85 5.33, 14.85 6.95, 14.85 11.13 M14.85 11.13 C14.85 13.61, 13.61 14.85, 11.13 14.85 M14.85 11.13 C14.85 13.61, 13.61 14.85, 11.13 14.85 M11.13 14.85 C8.96 14.85, 6.78 14.85, 3.71 14.85 M11.13 14.85 C8.69 14.85, 6.25 14.85, 3.71 14.85 M3.71 14.85 C1.24 14.85, 0 13.61, 0 11.13 M3.71 14.85 C1.24 14.85, 0 13.61, 0 11.13 M0 11.13 C0 8.31, 0 5.49, 0 3.71 M0 11.13 C0 8.72, 0 6.3, 0 3.71 M0 3.71 C0 1.24, 1.24 0, 3.71 0 M0 3.71 C0 1.24, 1.24 0, 3.71 0" stroke="#f8f9fa" stroke-width="1" fill="none"></path></g><g stroke-linecap="round" transform="translate(24.853836867794598 24.90198483395693) rotate(0 7.4228812622193345 7.422881262219391)"><path d="M3.71 0 C5.25 0, 6.79 0, 11.13 0 C13.61 0, 14.85 1.24, 14.85 3.71 C14.85 5.91, 14.85 8.11, 14.85 11.13 C14.85 13.61, 13.61 14.85, 11.13 14.85 C9.53 14.85, 7.92 14.85, 3.71 14.85 C1.24 14.85, 0 13.61, 0 11.13 C0 9.43, 0 7.72, 0 3.71 C0 1.24, 1.24 0, 3.71 0" stroke="none" stroke-width="0" fill="#ff8787"></path><path d="M3.71 0 C5.86 0, 8.01 0, 11.13 0 M3.71 0 C5.4 0, 7.09 0, 11.13 0 M11.13 0 C13.61 0, 14.85 1.24, 14.85 3.71 M11.13 0 C13.61 0, 14.85 1.24, 14.85 3.71 M14.85 3.71 C14.85 5.28, 14.85 6.86, 14.85 11.13 M14.85 3.71 C14.85 5.8, 14.85 7.89, 14.85 11.13 M14.85 11.13 C14.85 13.61, 13.61 14.85, 11.13 14.85 M14.85 11.13 C14.85 13.61, 13.61 14.85, 11.13 14.85 M11.13 14.85 C9.29 14.85, 7.45 14.85, 3.71 14.85 M11.13 14.85 C9.14 14.85, 7.15 14.85, 3.71 14.85 M3.71 14.85 C1.24 14.85, 0 13.61, 0 11.13 M3.71 14.85 C1.24 14.85, 0 13.61, 0 11.13 M0 11.13 C0 9.08, 0 7.02, 0 3.71 M0 11.13 C0 8.91, 0 6.68, 0 3.71 M0 3.71 C0 1.24, 1.24 0, 3.71 0 M0 3.71 C0 1.24, 1.24 0, 3.71 0" stroke="#f8f9fa" stroke-width="1" fill="none"></path></g></svg>